<svg xmlns="http://www.w3.org/2000/svg"  viewBox="0 0 48 48" width="48px" height="48px" baseProfile="basic"><rect width="36" height="36" x="6" y="6" fill="#57068c"/><path fill="#fff" d="M22.787,37.735c0,0.266,0.532,0.399,0.665,0l1.197-10.002h-3.06L22.787,37.735z"/><polygon fill="#fff" points="25.722,27.068 25.722,25.565 20.525,25.565 20.525,27.037"/><path fill="#fff" d="M24.25,24.783c6.527,0.266,7.043-5.729,7.043-7.998l0,0c-0.133,0.532-1.072,2.137-3.467,3.201	C25.835,20.794,24.457,22.642,24.25,24.783z"/><path fill="#fff" d="M23.585,24.383c1.064-4.93,5.063-5.063,5.478-6.003c0.532-1.463-0.532-4.132-0.783-4.398h-0.133	c-0.501,1.133-1.237,2.147-2.16,2.974c-0.783,0.665-4.265,3.334-2.403,7.466L23.585,24.383z"/><path fill="#fff" d="M22.803,24.65c-2.262-4.696,2.262-7.732,2.935-8.397c0.133-0.133,0.133-0.133,0.133-0.266	c-0.102-1.471-0.471-2.911-1.088-4.25H24.65c-0.399,1.463-2.395,3.6-2.794,4.132c-3.467,3.999-2.669,6.535,0.931,8.797L22.803,24.65	z"/><path fill="#fff" d="M21.856,24.783c-3.733-2.262-3.334-5.33-1.73-7.599v-0.227c-0.149-0.815-0.469-1.588-0.939-2.27	c0-0.133-0.133-0.133-0.133,0c0,0.673-0.783,2.27-1.863,4.007c-1.064,1.863-1.064,5.995,4.696,6.128L21.856,24.783z"/></svg>